<?xml version="1.0" encoding="UTF-8"?>
<svg version="1.1" xmlns="http://www.w3.org/2000/svg" width="225" height="225">
<path d="M0 0 C74.25 0 148.5 0 225 0 C225 74.25 225 148.5 225 225 C150.75 225 76.5 225 0 225 C0 150.75 0 76.5 0 0 Z " fill="#FDFDFD" transform="translate(0,0)"/>
<path d="M0 0 C7.83047456 6.56437763 7.83047456 6.56437763 9.4284668 10.70947266 C6.75946009 9.58027751 4.96646608 8.31395169 2.7409668 6.40869141 C-15.94656419 -9.32922472 -38.9654518 -12.4533269 -62.5715332 -11.29052734 C-66.80805935 -10.73007024 -70.55740422 -9.72497113 -74.5715332 -8.29052734 C-75.69301758 -7.95021484 -76.81450195 -7.60990234 -77.9699707 -7.25927734 C-85.69826267 -4.7781771 -91.69649769 -1.5998779 -98.2434082 3.13525391 C-100.5715332 4.70947266 -100.5715332 4.70947266 -102.5715332 4.70947266 C-102.5715332 5.36947266 -102.5715332 6.02947266 -102.5715332 6.70947266 C-104.25377192 7.85339498 -105.93652227 8.99657481 -107.62231445 10.13525391 C-110.43536402 12.40711558 -112.29906492 15.15493747 -114.30981445 18.13525391 C-114.93436523 18.91449219 -114.93436523 18.91449219 -115.5715332 19.70947266 C-116.2315332 19.70947266 -116.8915332 19.70947266 -117.5715332 19.70947266 C-117.82161133 20.22509766 -118.07168945 20.74072266 -118.3293457 21.27197266 C-119.30589758 23.1882254 -120.33211331 25.07917536 -121.3762207 26.95947266 C-132.33568112 46.69970557 -137.0822172 68.96456683 -132.51293945 91.45947266 C-129.01557034 103.53337765 -124.54877859 114.69493463 -116.4543457 124.39697266 C-114.78001121 126.45341668 -113.63355533 128.29476971 -112.5715332 130.70947266 C-111.9115332 130.70947266 -111.2515332 130.70947266 -110.5715332 130.70947266 C-108.88155997 132.35250219 -107.21936926 134.02418578 -105.5715332 135.70947266 C-101.82635808 139.07011274 -101.82635808 139.07011274 -97.5715332 141.70947266 C-97.5715332 142.36947266 -97.5715332 143.02947266 -97.5715332 143.70947266 C-96.8496582 143.99048828 -96.1277832 144.27150391 -95.3840332 144.56103516 C-92.72599337 145.64640142 -90.16058107 146.84520279 -87.5715332 148.08447266 C-65.25342621 158.21277021 -42.22244273 159.3500441 -19.2590332 150.89697266 C-9.83401437 147.24521259 -2.23967162 142.44786197 5.4909668 136.02197266 C6.06419678 135.54606689 6.63742676 135.07016113 7.22802734 134.57983398 C9.84367098 132.33530486 11.31872924 131.03868532 12.4284668 127.70947266 C16.76180013 123.04280599 16.76180013 123.04280599 19.4284668 121.70947266 C14.92386584 135.52525995 -2.51263564 147.10004385 -14.8371582 153.40478516 C-15.73950195 153.83533203 -16.6418457 154.26587891 -17.5715332 154.70947266 C-18.51512695 155.16064453 -19.4587207 155.61181641 -20.4309082 156.07666016 C-40.13739651 164.88723297 -66.17194178 166.58912477 -86.57348633 158.9609375 C-94.26668469 155.96269786 -100.930017 152.63967793 -107.5715332 147.70947266 C-108.3965332 147.23509766 -109.2215332 146.76072266 -110.0715332 146.27197266 C-113.51585433 144.11927195 -116.74351086 141.63529404 -119.5715332 138.70947266 C-119.5715332 138.04947266 -119.5715332 137.38947266 -119.5715332 136.70947266 C-120.3346582 136.48259766 -121.0977832 136.25572266 -121.8840332 136.02197266 C-125.27235946 134.36720867 -125.7504119 133.00149963 -127.5715332 129.70947266 C-128.62818325 128.45452368 -129.69157548 127.2052416 -130.7590332 125.95947266 C-145.81566328 106.81968867 -149.21883011 82.29402788 -147.5715332 58.70947266 C-146.05065788 48.09738144 -142.34748136 38.26136897 -137.5715332 28.70947266 C-137.2415332 27.71947266 -136.9115332 26.72947266 -136.5715332 25.70947266 C-135.9115332 25.70947266 -135.2515332 25.70947266 -134.5715332 25.70947266 C-134.3652832 25.04947266 -134.1590332 24.38947266 -133.9465332 23.70947266 C-132.08029068 19.63767079 -129.59591793 16.02150267 -126.5715332 12.70947266 C-125.9115332 12.70947266 -125.2515332 12.70947266 -124.5715332 12.70947266 C-124.3240332 12.13197266 -124.0765332 11.55447266 -123.8215332 10.95947266 C-122.38853332 8.38007286 -120.78728644 6.64825674 -118.5715332 4.70947266 C-117.9115332 4.70947266 -117.2515332 4.70947266 -116.5715332 4.70947266 C-116.2415332 3.71947266 -115.9115332 2.72947266 -115.5715332 1.70947266 C-82.78457819 -24.97758375 -33.2749074 -26.97287553 0 0 Z " fill="#CFAE6E" transform="translate(158.571533203125,37.29052734375)"/>
<path d="M0 0 C0.66 0 1.32 0 2 0 C3.5078125 2.1171875 3.5078125 2.1171875 5.125 4.875 C5.66382813 5.77992187 6.20265625 6.68484375 6.7578125 7.6171875 C8 10 8 10 8 12 C8.86625 12.350625 9.7325 12.70125 10.625 13.0625 C15.47615402 15.84742175 18.61538596 19.49450792 21.3125 24.375 C21.93818233 26.7639689 22.10851552 28.73938967 22.25 31.1875 C22.68565236 36.27865302 24.93412796 39.74095945 27.72265625 43.93359375 C29 46 29 46 29 48 C27.515 47.91298828 27.515 47.91298828 26 47.82421875 C17.99627007 47.49912735 12.40196065 47.64325742 6 53 C6 53.33 6 53.66 6 54 C10.95 54.33 15.9 54.66 21 55 C21 56.65 21 58.3 21 60 C20.37351563 59.84402344 19.74703125 59.68804687 19.1015625 59.52734375 C18.28429687 59.33269531 17.46703125 59.13804687 16.625 58.9375 C15.81289062 58.74027344 15.00078125 58.54304688 14.1640625 58.33984375 C11.95838716 57.77890681 11.95838716 57.77890681 10 59 C8.515 58.505 8.515 58.505 7 58 C5.33378384 57.96125079 3.66605828 57.9549714 2 58 C2 58.66 2 59.32 2 60 C1.01 60 0.02 60 -1 60 C-1.66 58.68 -2.32 57.36 -3 56 C-3.66 56.66 -4.32 57.32 -5 58 C-6.32 58 -7.64 58 -9 58 C-9.33 57.67 -9.66 57.34 -10 57 C-11.34386088 57.28797019 -12.6757713 57.63215869 -14 58 C-15.66519519 58.34060811 -17.33157466 58.67558396 -19 59 C-19.33 57.68 -19.66 56.36 -20 55 C-16.37 55 -12.74 55 -9 55 C-8.67 54.34 -8.34 53.68 -8 53 C-6.515 52.505 -6.515 52.505 -5 52 C-5.845625 51.67 -6.69125 51.34 -7.5625 51 C-11.9537211 48.44510772 -15.34419824 45.36048995 -18 41 C-18.33 38.69 -18.66 36.38 -19 34 C-13.39 34 -7.78 34 -2 34 C-2 34.66 -2 35.32 -2 36 C-6.95 36 -11.9 36 -17 36 C-16.0925 37.423125 -15.185 38.84625 -14.25 40.3125 C-13.48429688 41.51326172 -13.48429688 41.51326172 -12.703125 42.73828125 C-8.9498441 47.72256941 -6.34126579 48.18820977 0 50 C0 44.39 0 38.78 0 33 C-6.6 33 -13.2 33 -20 33 C-18.6996904 21.29721362 -18.6996904 21.29721362 -13.1328125 16.3359375 C-9.18318278 13.19113799 -7.15361255 12.03072251 -2 11 C-2 16.94 -2 22.88 -2 29 C-2.66 29 -3.32 29 -4 29 C-4 24.05 -4 19.1 -4 14 C-11.70426789 18.48007502 -11.70426789 18.48007502 -16 26 C-16.33 27.65 -16.66 29.3 -17 31 C-11.39 31 -5.78 31 0 31 C0 24.4 0 17.8 0 11 C-2.475 10.505 -2.475 10.505 -5 10 C-3.35 6.7 -1.7 3.4 0 0 Z " fill="#D8A56F" transform="translate(189,85)"/>
<path d="M0 0 C0 6.03988956 -5.63568439 10.59739488 -9.64453125 14.71875 C-29.24770179 33.74545527 -51.95001777 41.54260985 -79.10180664 41.34936523 C-96.52152638 40.99208113 -111.9444656 36.43830128 -126 26 C-126.845625 25.505 -127.69125 25.01 -128.5625 24.5 C-131.66491865 22.59081929 -134.26938282 20.41310355 -137 18 C-137 17.67 -137 17.34 -137 17 C-134.69 17.33 -132.38 17.66 -130 18 C-130 18.99 -130 19.98 -130 21 C-128.02 21.66 -126.04 22.32 -124 23 C-124 23.66 -124 24.32 -124 25 C-122.948125 25.0928125 -122.948125 25.0928125 -121.875 25.1875 C-118.69974523 26.08485461 -117.09057768 27.58194193 -114.6484375 29.7265625 C-108.8214264 34.22799762 -101.15294864 34.94971565 -94 35 C-93.67 34.67 -93.34 34.34 -93 34 C-98.445 32.515 -98.445 32.515 -104 31 C-104 30.34 -104 29.68 -104 29 C-104.69609375 28.90460938 -105.3921875 28.80921875 -106.109375 28.7109375 C-109.56971502 27.8598809 -112.17521837 26.41988484 -115.25 24.625 C-116.30703125 24.01914063 -117.3640625 23.41328125 -118.453125 22.7890625 C-121 21 -121 21 -122 18 C-122.9590625 17.5359375 -122.9590625 17.5359375 -123.9375 17.0625 C-126.45468915 15.7657662 -126.96886948 14.5778263 -128 12 C-124.39102282 14.06227267 -121.22542467 16.38479081 -118 19 C-117.34 19.33 -116.68 19.66 -116 20 C-116 20.66 -116 21.32 -116 22 C-115.278125 22.28101563 -114.55625 22.56203125 -113.8125 22.8515625 C-111.15446017 23.93692876 -108.58904787 25.13573014 -106 26.375 C-83.681893 36.50329755 -60.65090952 37.64057144 -37.6875 29.1875 C-28.26248117 25.53573994 -20.66813841 20.73838931 -12.9375 14.3125 C-12.36427002 13.83659424 -11.79104004 13.36068848 -11.20043945 12.87036133 C-8.58479582 10.62583221 -7.10973755 9.32921266 -6 6 C-4.37446717 4.29319053 -2.70884005 2.62339805 -1 1 C-0.67 0.67 -0.34 0.34 0 0 Z " fill="#C9AF79" transform="translate(177,159)"/>
<path d="M0 0 C2.64 0 5.28 0 8 0 C10.53630629 5.55571853 12.31108451 11.12900806 14 17 C15.98 11.39 17.96 5.78 20 0 C22.64 0 25.28 0 28 0 C28 8.58 28 17.16 28 26 C26.35 26 24.7 26 23 26 C22.67 21.05 22.34 16.1 22 11 C20.35 15.95 18.7 20.9 17 26 C15.02 26 13.04 26 11 26 C9.35 20.39 7.7 14.78 6 9 C5.67 14.61 5.34 20.22 5 26 C3.35 26 1.7 26 0 26 C0 17.42 0 8.84 0 0 Z " fill="#363435" transform="translate(108,89)"/>
<path d="M0 0 C0.66 0 1.32 0 2 0 C3.54296875 2.08203125 3.54296875 2.08203125 5.1875 4.8125 C6.01314453 6.15248047 6.01314453 6.15248047 6.85546875 7.51953125 C8 10 8 10 7 13 C5.35 13 3.7 13 2 13 C2 18.94 2 24.88 2 31 C8.27 31 14.54 31 21 31 C21 38.875 21 38.875 19 43 C18.34 43 17.68 43 17 43 C17.53980347 39.60694964 18.16550811 36.33796756 19 33 C13.39 33 7.78 33 2 33 C2 39.27 2 45.54 2 52 C-4.97160881 52 -7.85186526 51.88200376 -12.89453125 47.265625 C-17.43277446 42.49631035 -17.98017291 41.13878966 -19 34 C-13.39 34 -7.78 34 -2 34 C-2 34.66 -2 35.32 -2 36 C-6.95 36 -11.9 36 -17 36 C-16.0925 37.423125 -15.185 38.84625 -14.25 40.3125 C-13.48429688 41.51326172 -13.48429688 41.51326172 -12.703125 42.73828125 C-8.9498441 47.72256941 -6.34126579 48.18820977 0 50 C0 44.39 0 38.78 0 33 C-6.6 33 -13.2 33 -20 33 C-18.6996904 21.29721362 -18.6996904 21.29721362 -13.1328125 16.3359375 C-9.18318278 13.19113799 -7.15361255 12.03072251 -2 11 C-2 16.94 -2 22.88 -2 29 C-2.66 29 -3.32 29 -4 29 C-4 24.05 -4 19.1 -4 14 C-11.70426789 18.48007502 -11.70426789 18.48007502 -16 26 C-16.33 27.65 -16.66 29.3 -17 31 C-11.39 31 -5.78 31 0 31 C0 24.4 0 17.8 0 11 C-2.475 10.505 -2.475 10.505 -5 10 C-3.35 6.7 -1.7 3.4 0 0 Z " fill="#D39C5F" transform="translate(189,85)"/>
<path d="M0 0 C-0.47050781 0.35191406 -0.94101563 0.70382813 -1.42578125 1.06640625 C-7.88505137 6.18835336 -9.6320919 10.79255142 -11 19 C-4.4 19 2.2 19 9 19 C9 24.61 9 30.22 9 36 C1.68959612 34.95565659 -0.2986484 34.05364927 -5 29 C-8 24.74193548 -8 24.74193548 -8 22 C-3.05 22 1.9 22 7 22 C7 21.34 7 20.68 7 20 C1.39 20 -4.22 20 -10 20 C-8.1978478 26.26010764 -6.48234719 30.27536377 -2 35 C-6.62 35.66 -11.24 36.32 -16 37 C-16.33 36.34 -16.66 35.68 -17 35 C-17.99 34.67 -18.98 34.34 -20 34 C-20.4025937 30.47730515 -20.13372795 29.20059192 -18.125 26.1875 C-17.42375 25.465625 -16.7225 24.74375 -16 24 C-15.34 24 -14.68 24 -14 24 C-13.81824219 22.44539063 -13.81824219 22.44539063 -13.6328125 20.859375 C-13.46392819 19.48953562 -13.29463589 18.11974651 -13.125 16.75 C-13.04636719 16.06808594 -12.96773437 15.38617188 -12.88671875 14.68359375 C-12.43354167 11.09303689 -11.90614262 8.107493 -10 5 C-9.34 5 -8.68 5 -8 5 C-7.731875 4.195625 -7.46375 3.39125 -7.1875 2.5625 C-6.795625 1.716875 -6.40375 0.87125 -6 0 C-3 -1 -3 -1 0 0 Z " fill="#FCEBCA" transform="translate(180,99)"/>
<path d="M0 0 C5.61 0 11.22 0 17 0 C15.89094098 6.65435414 14.32742746 9.78894391 9.5 14.375 C7 16 7 16 3 16 C3 11.05 3 6.1 3 1 C2.34 1 1.68 1 1 1 C1 6.94 1 12.88 1 19 C1.99 19.33 2.98 19.66 4 20 C4 20.33 4 20.66 4 21 C8.95 21.33 13.9 21.66 19 22 C19 23.65 19 25.3 19 27 C18.37351563 26.84402344 17.74703125 26.68804687 17.1015625 26.52734375 C16.28429687 26.33269531 15.46703125 26.13804687 14.625 25.9375 C13.81289062 25.74027344 13.00078125 25.54304688 12.1640625 25.33984375 C9.95838716 24.77890681 9.95838716 24.77890681 8 26 C7.01 25.67 6.02 25.34 5 25 C3.33378384 24.96125079 1.66605828 24.9549714 0 25 C0 25.66 0 26.32 0 27 C-0.99 27 -1.98 27 -3 27 C-3.66 25.68 -4.32 24.36 -5 23 C-5.66 23.66 -6.32 24.32 -7 25 C-8.32 25 -9.64 25 -11 25 C-11.33 24.67 -11.66 24.34 -12 24 C-13.34386088 24.28797019 -14.6757713 24.63215869 -16 25 C-17.66519519 25.34060811 -19.33157466 25.67558396 -21 26 C-21.33 24.68 -21.66 23.36 -22 22 C-18.37 22 -14.74 22 -11 22 C-10.67 21.34 -10.34 20.68 -10 20 C-7.71484375 19.5859375 -7.71484375 19.5859375 -4.9375 19.375 C-3.308125 19.25125 -1.67875 19.1275 0 19 C0 12.73 0 6.46 0 0 Z " fill="#FDE8C1" transform="translate(191,118)"/>
<path d="M0 0 C2.70238913 2.3804595 4.72846862 4.46936493 6.03442383 7.85693359 C3.36541712 6.72773845 1.57242311 5.46141263 -0.65307617 3.55615234 C-13.57830173 -7.32897292 -30.9872574 -13.82667807 -47.80151367 -14.45947266 C-48.86499023 -14.50136719 -49.9284668 -14.54326172 -51.02416992 -14.58642578 C-52.11858398 -14.62574219 -53.21299805 -14.66505859 -54.34057617 -14.70556641 C-55.45819336 -14.74875 -56.57581055 -14.79193359 -57.72729492 -14.83642578 C-60.47327816 -14.94204052 -63.21934498 -15.0441461 -65.96557617 -15.14306641 C-62.90400963 -16.91975864 -60.72521402 -17.38357458 -57.19995117 -17.33837891 C-56.31049805 -17.33193359 -55.42104492 -17.32548828 -54.50463867 -17.31884766 C-53.58424805 -17.30208984 -52.66385742 -17.28533203 -51.71557617 -17.26806641 C-50.7797168 -17.25904297 -49.84385742 -17.25001953 -48.87963867 -17.24072266 C-46.5746896 -17.21720277 -44.27026457 -17.18433493 -41.96557617 -17.14306641 C-46.31642795 -18.78544092 -50.03558253 -19.42939686 -54.67651367 -19.55712891 C-56.54243164 -19.61513672 -56.54243164 -19.61513672 -58.44604492 -19.67431641 C-59.73124023 -19.70525391 -61.01643555 -19.73619141 -62.34057617 -19.76806641 C-63.64897461 -19.80673828 -64.95737305 -19.84541016 -66.30541992 -19.88525391 C-69.52533334 -19.97926598 -72.74524497 -20.06492462 -75.96557617 -20.14306641 C-75.96557617 -20.47306641 -75.96557617 -20.80306641 -75.96557617 -21.14306641 C-47.87671874 -24.62310184 -21.70446384 -18.29060267 0 0 Z " fill="#C5B384" transform="translate(161.965576171875,40.14306640625)"/>
<path d="M0 0 C1.41841848 2.72965556 2.58460299 5.45154283 3.62890625 8.34375 C7.56677144 18.92252153 11.63917183 27.34110047 19 36 C19.66 36.99 20.32 37.98 21 39 C19.02 39.495 19.02 39.495 17 40 C16.5875 38.88625 16.175 37.7725 15.75 36.625 C14.36188309 33.32656983 13.30398658 32.43172752 10 31 C9.66666667 29.66666667 9.33333333 28.33333333 9 27 C7.04417417 24.2129482 5.09264924 21.54632462 2 20 C2.165 20.61875 2.33 21.2375 2.5 21.875 C3 24 3 24 3 26 C5.00941725 32.24154186 7.34392668 37.34392668 12 42 C13.485 42.495 13.485 42.495 15 43 C14.67 43.66 14.34 44.32 14 45 C11 45 11 45 9 44 C8.608125 43.34 8.21625 42.68 7.8125 42 C6.24178791 39.40020068 4.61036986 37.27120329 2.6875 34.9375 C-1.20593634 30.01685918 -7 22.49984164 -7 16 C-4.525 16.99 -4.525 16.99 -2 18 C-0.04968308 13.92276266 0.21581971 10.68307578 0.125 6.1875 C0.10695313 5.02605469 0.08890625 3.86460937 0.0703125 2.66796875 C0.04710937 1.78753906 0.02390625 0.90710938 0 0 Z " fill="#CCB177" transform="translate(25,128)"/>
<path d="M0 0 C0.66 0.33 1.32 0.66 2 1 C2 2.32 2 3.64 2 5 C-0.97 5 -3.94 5 -7 5 C-6.57069449 7.42240798 -6.57069449 7.42240798 -5 10 C-3.0982848 11.02376451 -3.0982848 11.02376451 -0.9375 11.875 C1.2109375 12.8359375 1.2109375 12.8359375 3 14 C4.1875 17.5 4.1875 17.5 4 21 C2.3072108 24.21629947 1.48819868 24.83726711 -2 26 C-3.72795352 26.06802967 -5.45835365 26.08495645 -7.1875 26.0625 C-8.08855469 26.05347656 -8.98960938 26.04445313 -9.91796875 26.03515625 C-10.60503906 26.02355469 -11.29210938 26.01195313 -12 26 C-12 24.35 -12 22.7 -12 21 C-9.03 21 -6.06 21 -3 21 C-3 19.68 -3 18.36 -3 17 C-3.63808594 16.72027344 -4.27617188 16.44054687 -4.93359375 16.15234375 C-11.64865423 12.89433469 -11.64865423 12.89433469 -13.375 8.5 C-13 5 -13 5 -11.0625 2.0625 C-6.94283036 -0.71197139 -4.88931721 -0.48091645 0 0 Z " fill="#3C3C3C" transform="translate(69,89)"/>
<path d="M0 0 C0.99 0.33 1.98 0.66 3 1 C3 2.32 3 3.64 3 5 C0.36 5 -2.28 5 -5 5 C-4.96906827 7.41585574 -4.96906827 7.41585574 -4 10 C-1.0999475 11.74170298 -1.0999475 11.74170298 2 13 C4.57990801 15.57990801 4.31598838 17.50244461 4.4609375 21.02734375 C4 23 4 23 2.3359375 24.7421875 C-0.56107977 26.30211987 -2.4799464 26.30428763 -5.75 26.1875 C-7.22726563 26.14689453 -7.22726563 26.14689453 -8.734375 26.10546875 C-9.48203125 26.07066406 -10.2296875 26.03585938 -11 26 C-11 24.35 -11 22.7 -11 21 C-7.7 21 -4.4 21 -1 21 C-1.51635631 17.03716759 -1.51635631 17.03716759 -3.77734375 15.8046875 C-4.49019531 15.49789062 -5.20304687 15.19109375 -5.9375 14.875 C-8.53209987 13.73544797 -9.96549847 13.03450153 -12 11 C-12.62424145 6.98701927 -12.32931492 5.45904505 -9.9375 2.125 C-6.30465988 -0.503012 -4.39383127 -0.48820347 0 0 Z " fill="#303030" transform="translate(48,89)"/>
<path d="M0 0 C3.96 0.33 7.92 0.66 12 1 C12 1.33 12 1.66 12 2 C10.02 2 8.04 2 6 2 C6 8.6 6 15.2 6 22 C0.39 22 -5.22 22 -11 22 C-9.84142395 12.73139159 -9.84142395 12.73139159 -5 8 C-0.7 5 -0.7 5 2 5 C2 9.95 2 14.9 2 20 C2.66 20 3.32 20 4 20 C3.67 14.39 3.34 8.78 3 3 C2.01 2.67 1.02 2.34 0 2 C0 1.34 0 0.68 0 0 Z " fill="#FDF0D5" transform="translate(183,94)"/>
<path d="M0 0 C2.64 0 5.28 0 8 0 C11.33707393 6.67414785 12.57511728 13.71389759 14 21 C13.34 21 12.68 21 12 21 C11.67 21.99 11.34 22.98 11 24 C9.35 19.05 7.7 14.1 6 9 C5.67 14.61 5.34 20.22 5 26 C3.35 26 1.7 26 0 26 C0 17.42 0 8.84 0 0 Z " fill="#2F2E2F" transform="translate(108,89)"/>
<path d="M0 0 C1.91595968 -0.08133791 3.83291932 -0.13934367 5.75 -0.1875 C7.35101563 -0.23970703 7.35101563 -0.23970703 8.984375 -0.29296875 C12.35535758 0.03452308 13.68317958 0.55660744 16 3 C16.45326577 6.17286036 16.69618391 7.99127475 16 11 C13.875 13.5 13.875 13.5 11 15 C7.6875 15.25 7.6875 15.25 5 15 C5 18.3 5 21.6 5 25 C3.35 25 1.7 25 0 25 C0 18.4 0 11.8 0 5 C0.66 5 1.32 5 2 5 C2.66 4.67 3.32 4.34 4 4 C4 6.31 4 8.62 4 11 C5.98 10.34 7.96 9.68 10 9 C10 7.68 10 6.36 10 5 C6.7 4.34 3.4 3.68 0 3 C0 2.01 0 1.02 0 0 Z " fill="#373737" transform="translate(88,90)"/>
<path d="M0 0 C6.6 0 13.2 0 20 0 C20 1.65 20 3.3 20 5 C17.36 5 14.72 5 12 5 C12 11.93 12 18.86 12 26 C10.35 26 8.7 26 7 26 C7 19.07 7 12.14 7 5 C4.69 5 2.38 5 0 5 C0 3.35 0 1.7 0 0 Z " fill="#272727" transform="translate(140,89)"/>
<path d="M0 0 C7.42872435 2.10665317 11.45009828 4.13118359 15.8125 10.75 C17 13 17 13 17 14 C11.72 14 6.44 14 1 14 C1 14.99 1 15.98 1 17 C6.61 17 12.22 17 18 17 C18 17.33 18 17.66 18 18 C12.06 18 6.12 18 0 18 C0 12.06 0 6.12 0 0 Z " fill="#FBF6E5" transform="translate(191,98)"/>
<path d="M0 0 C4.95 0 9.9 0 15 0 C15 3.96 15 7.92 15 12 C8.23357664 12 8.23357664 12 5.25 9.1875 C4.39148438 8.40439453 4.39148438 8.40439453 3.515625 7.60546875 C1.08161638 5.02717612 0 3.60251621 0 0 Z " fill="#FCFCF7" transform="translate(173,122)"/>
<path d="M0 0 C6.8359375 -0.1953125 6.8359375 -0.1953125 9 0 C9.66 0.66 10.32 1.32 11 2 C10.73786677 3.96599921 10.47114399 5.93175968 10.16015625 7.890625 C9.9309981 10.90880557 10.83116592 13.24980216 12 16 C10.68 16 9.36 16 8 16 C7.54625 15.030625 7.0925 14.06125 6.625 13.0625 C5.34213779 9.92920418 5.34213779 9.92920418 3 9 C3 11.31 3 13.62 3 16 C2.01 16 1.02 16 0 16 C0 10.72 0 5.44 0 0 Z " fill="#383838" transform="translate(48,124)"/>
<path d="M0 0 C6.8359375 -0.1953125 6.8359375 -0.1953125 9 0 C9.66 0.66 10.32 1.32 11 2 C10.73786677 3.96599921 10.47114399 5.93175968 10.16015625 7.890625 C9.9309981 10.90880557 10.83116592 13.24980216 12 16 C10.68 16 9.36 16 8 16 C7.54625 15.030625 7.0925 14.06125 6.625 13.0625 C5.34213779 9.92920418 5.34213779 9.92920418 3 9 C3 11.31 3 13.62 3 16 C2.01 16 1.02 16 0 16 C0 10.72 0 5.44 0 0 Z " fill="#3C3C3C" transform="translate(135,124)"/>
<path d="M0 0 C1.65 0 3.3 0 5 0 C6.98 4.95 8.96 9.9 11 15 C9.68 15.33 8.36 15.66 7 16 C6.67 14.68 6.34 13.36 6 12 C3.69 12 1.38 12 -1 12 C-1.33 13.32 -1.66 14.64 -2 16 C-2.99 16 -3.98 16 -5 16 C-4.34309381 12.21760329 -3.279869 8.78158474 -1.9375 5.1875 C-1.57527344 4.21167969 -1.21304688 3.23585938 -0.83984375 2.23046875 C-0.42412109 1.12638672 -0.42412109 1.12638672 0 0 Z " fill="#383838" transform="translate(70,124)"/>
<path d="M0 0 C0 6.03988956 -5.63568439 10.59739488 -9.64453125 14.71875 C-19.55906669 24.33854271 -30.61275429 32.09310993 -44 36 C-44.66 34.68 -45.32 33.36 -46 32 C-44.96101562 31.63648438 -43.92203125 31.27296875 -42.8515625 30.8984375 C-31.49738802 26.84542148 -22.24299833 22.04745008 -12.9375 14.3125 C-12.36427002 13.83659424 -11.79104004 13.36068848 -11.20043945 12.87036133 C-8.58479582 10.62583221 -7.10973755 9.32921266 -6 6 C-4.37446717 4.29319053 -2.70884005 2.62339805 -1 1 C-0.67 0.67 -0.34 0.34 0 0 Z " fill="#C1B58F" transform="translate(177,159)"/>
<path d="M0 0 C1.32 0 2.64 0 4 0 C4.33 4.29 4.66 8.58 5 13 C6.32 13.33 7.64 13.66 9 14 C9.33 9.38 9.66 4.76 10 0 C11.32 0 12.64 0 14 0 C14.0810206 2.10353495 14.13919907 4.20795952 14.1875 6.3125 C14.22230469 7.48425781 14.25710937 8.65601563 14.29296875 9.86328125 C14 13 14 13 12.73828125 14.89453125 C10.66232112 16.21474859 9.4484873 16.40282372 7 16.375 C6.319375 16.38273437 5.63875 16.39046875 4.9375 16.3984375 C2.31106228 15.85832329 1.49179666 15.24000427 0 13 C-0.29296875 9.86328125 -0.29296875 9.86328125 -0.1875 6.3125 C-0.16042969 5.13300781 -0.13335937 3.95351562 -0.10546875 2.73828125 C-0.07066406 1.83464844 -0.03585938 0.93101563 0 0 Z " fill="#444444" transform="translate(114,124)"/>
<path d="M0 0 C3.63 0 7.26 0 11 0 C11.41643175 3.40085928 11.58053391 5.98748631 9.83984375 9.0234375 C7.0178912 12.55989977 7.0178912 12.55989977 5 14 C3.35 14 1.7 14 0 14 C0 9.38 0 4.76 0 0 Z " fill="#FBFDF8" transform="translate(195,119)"/>
<path d="M0 0 C1.65 0 3.3 0 5 0 C5 8.58 5 17.16 5 26 C3.35 26 1.7 26 0 26 C0 17.42 0 8.84 0 0 Z " fill="#1C1C1C" transform="translate(77,89)"/>
<path d="M0 0 C0.66 0 1.32 0 2 0 C2 6.27 2 12.54 2 19 C-4.97160881 19 -7.85186526 18.88200376 -12.89453125 14.265625 C-17.43277446 9.49631035 -17.98017291 8.13878966 -19 1 C-13.39 1 -7.78 1 -2 1 C-2 1.66 -2 2.32 -2 3 C-6.95 3 -11.9 3 -17 3 C-16.0925 4.423125 -15.185 5.84625 -14.25 7.3125 C-13.73953125 8.11300781 -13.2290625 8.91351563 -12.703125 9.73828125 C-8.9498441 14.72256941 -6.34126579 15.18820977 0 17 C0 11.39 0 5.78 0 0 Z " fill="#C69F6A" transform="translate(189,118)"/>
<path d="M0 0 C-0.33 1.32 -0.66 2.64 -1 4 C-11.23 3.67 -21.46 3.34 -32 3 C-28.25549268 1.12774634 -27.14972809 0.75449067 -23.234375 0.8046875 C-22.34492187 0.81113281 -21.45546875 0.81757813 -20.5390625 0.82421875 C-19.61867188 0.84097656 -18.69828125 0.85773437 -17.75 0.875 C-16.81414062 0.88402344 -15.87828125 0.89304687 -14.9140625 0.90234375 C-12.60911343 0.92586364 -10.3046884 0.95873147 -8 1 C-12.35085177 -0.64237451 -16.07000636 -1.28633045 -20.7109375 -1.4140625 C-22.57685547 -1.47207031 -22.57685547 -1.47207031 -24.48046875 -1.53125 C-25.76566406 -1.5621875 -27.05085938 -1.593125 -28.375 -1.625 C-29.68339844 -1.66367187 -30.99179688 -1.70234375 -32.33984375 -1.7421875 C-35.55975716 -1.83619957 -38.7796688 -1.92185821 -42 -2 C-42 -2.33 -42 -2.66 -42 -3 C-27.90558237 -4.74621103 -13.52451025 -4.86228616 0 0 Z " fill="#C7B180" transform="translate(128,22)"/>
<path d="M0 0 C6.8359375 -0.1953125 6.8359375 -0.1953125 9 0 C11 2 11 2 11.3125 4.4375 C11 7 11 7 9.75 8.8125 C8 10 8 10 4 10 C4 11.98 4 13.96 4 16 C2.68 16 1.36 16 0 16 C0 10.72 0 5.44 0 0 Z " fill="#292929" transform="translate(97,124)"/>
<path d="M0 0 C4.90224772 3.05351871 8.11781396 7.7014467 9.84375 13.1484375 C10.14453125 16.375 10.14453125 16.375 10.15625 19.7734375 C10.17300781 20.90007812 10.18976563 22.02671875 10.20703125 23.1875 C9.84375 26.1484375 9.84375 26.1484375 8.32421875 28.046875 C7.83566406 28.41039063 7.34710938 28.77390625 6.84375 29.1484375 C7.00875 28.4678125 7.17375 27.7871875 7.34375 27.0859375 C8.03951591 23.4949377 8.03951591 23.4949377 7.84375 17.1484375 C2.23375 16.8184375 -3.37625 16.4884375 -9.15625 16.1484375 C-9.15625 15.1584375 -9.15625 14.1684375 -9.15625 13.1484375 C-4.20625 12.8184375 0.74375 12.4884375 5.84375 12.1484375 C2.9855487 6.2033788 0.74923251 4.04749255 -5.15625 1.1484375 C-6.14625 0.4884375 -7.13625 -0.1715625 -8.15625 -0.8515625 C-4.68851012 -2.00747579 -3.2545114 -1.50314298 0 0 Z " fill="#DAB381" transform="translate(201.15625,98.8515625)"/>
<path d="M0 0 C1.09365603 4.1793479 1.20958825 7.66850942 1 12 C0.34 12.66 -0.32 13.32 -1 14 C-2.24763037 20.18791171 -2.39197526 26.51979311 -2.6875 32.8125 C-2.74744141 33.86115234 -2.80738281 34.90980469 -2.86914062 35.99023438 C-2.91619141 36.98990234 -2.96324219 37.98957031 -3.01171875 39.01953125 C-3.05772217 39.92807861 -3.10372559 40.83662598 -3.15112305 41.77270508 C-3.23118108 44.20723041 -3.23118108 44.20723041 -1 46 C0.51140341 50.8364909 0.08758686 55.98808522 0 61 C-7.01382294 53.98617706 -5.49244764 38.12529672 -5.50439453 28.93017578 C-5.30259474 18.75917172 -3.23860316 9.60014507 0 0 Z " fill="#C9B489" transform="translate(16,77)"/>
<path d="M0 0 C2.31 0.33 4.62 0.66 7 1 C7 1.99 7 2.98 7 4 C8.98 4.66 10.96 5.32 13 6 C13 6.66 13 7.32 13 8 C13.70125 8.061875 14.4025 8.12375 15.125 8.1875 C18.29718843 9.08398804 19.90464348 10.5674978 22.33203125 12.7265625 C26.80958833 16.14502528 32.51140844 17.31392605 38 18 C38 18.66 38 19.32 38 20 C38.66 20.66 39.32 21.32 40 22 C34.8923682 21.39441495 30.71206996 19.81745306 26.0625 17.75 C25.04639648 17.31880859 25.04639648 17.31880859 24.00976562 16.87890625 C19.19178785 14.76324583 15.21338076 12.14960641 11 9 C10.154375 8.505 9.30875 8.01 8.4375 7.5 C5.33508135 5.59081929 2.73061718 3.41310355 0 1 C0 0.67 0 0.34 0 0 Z " fill="#CCB688" transform="translate(40,176)"/>
<path d="M0 0 C6.6 0 13.2 0 20 0 C20 1.65 20 3.3 20 5 C6.3667426 6.33257403 6.3667426 6.33257403 0 5 C0 3.35 0 1.7 0 0 Z " fill="#575757" transform="translate(140,89)"/>
<path d="M0 0 C0.99 0.33 1.98 0.66 3 1 C3 2.32 3 3.64 3 5 C0.36 5 -2.28 5 -5 5 C-5.33 7.31 -5.66 9.62 -6 12 C-6.66 12 -7.32 12 -8 12 C-8.33 12.66 -8.66 13.32 -9 14 C-11.45179712 12.16115216 -11.96567755 11.19735411 -12.5 8.125 C-12 5 -12 5 -9.9375 2.125 C-6.30465988 -0.503012 -4.39383127 -0.48820347 0 0 Z " fill="#383838" transform="translate(48,89)"/>
<path d="M0 0 C0 5.94 0 11.88 0 18 C-0.66 18 -1.32 18 -2 18 C-2 13.05 -2 8.1 -2 3 C-9.70426789 7.48007502 -9.70426789 7.48007502 -14 15 C-14.165 15.9075 -14.33 16.815 -14.5 17.75 C-15 20 -15 20 -18 22 C-17.73057018 15.93782902 -17.11023401 11.74257771 -13 7 C-4.99765258 0 -4.99765258 0 0 0 Z " fill="#CEA57A" transform="translate(187,96)"/>
<path d="M0 0 C3.3 0 6.6 0 10 0 C10 0.33 10 0.66 10 1 C7.03 1 4.06 1 1 1 C1 1.99 1 2.98 1 4 C3.97851562 3.90234375 3.97851562 3.90234375 6.95703125 3.8046875 C9 4 9 4 12 6 C11.125 10.875 11.125 10.875 10 12 C8.33382885 12.04063832 6.66611905 12.042721 5 12 C5 9.69 5 7.38 5 5 C3.09965347 6.59947676 2.10232963 7.52833609 1.56762695 9.99291992 C1.54144287 10.73131104 1.51525879 11.46970215 1.48828125 12.23046875 C1.45283203 13.03291016 1.41738281 13.83535156 1.38085938 14.66210938 C1.35830078 15.49548828 1.33574219 16.32886719 1.3125 17.1875 C1.27833984 18.03248047 1.24417969 18.87746094 1.20898438 19.74804688 C1.12658529 21.83156649 1.06161355 23.91576216 1 26 C0.67 26 0.34 26 0 26 C0 17.42 0 8.84 0 0 Z " fill="#6D6D6D" transform="translate(87,89)"/>
<path d="M0 0 C3.60897718 2.06227267 6.77457533 4.38479081 10 7 C10.66 7.33 11.32 7.66 12 8 C12 8.66 12 9.32 12 10 C12.721875 10.28101563 13.44375 10.56203125 14.1875 10.8515625 C16.84553983 11.93692876 19.41095213 13.13573014 22 14.375 C27.26136122 16.79508338 32.58925622 18.51698082 38.15234375 20.10546875 C40.61337982 20.87855141 42.74373229 21.76584875 45 23 C42.03 23.495 42.03 23.495 39 24 C39 23.34 39 22.68 39 22 C37.824375 21.87625 36.64875 21.7525 35.4375 21.625 C31.45879574 21.13564065 27.82233441 20.1944795 24 19 C24 18.34 24 17.68 24 17 C22.95585938 16.85691406 22.95585938 16.85691406 21.890625 16.7109375 C18.43028498 15.8598809 15.82478163 14.41988484 12.75 12.625 C11.69296875 12.01914063 10.6359375 11.41328125 9.546875 10.7890625 C7 9 7 9 6 6 C5.0409375 5.5359375 5.0409375 5.5359375 4.0625 5.0625 C1.54531085 3.7657662 1.03113052 2.5778263 0 0 Z " fill="#C7B083" transform="translate(49,171)"/>
<path d="M0 0 C0.66 0 1.32 0 2 0 C1.979375 1.11375 1.95875 2.2275 1.9375 3.375 C1.73619282 6.83215921 1.73619282 6.83215921 3 9 C2.34 9 1.68 9 1 9 C1 9.66 1 10.32 1 11 C1.66 11 2.32 11 3 11 C3 14.3 3 17.6 3 21 C1.35 21 -0.3 21 -2 21 C-2 14.4 -2 7.8 -2 1 C-1.34 1 -0.68 1 0 1 C0 0.67 0 0.34 0 0 Z " fill="#575757" transform="translate(90,94)"/>
<path d="M0 0 C0.75 1.75 0.75 1.75 1 4 C-0.8125 6.25 -0.8125 6.25 -3 8 C-3.66 8 -4.32 8 -5 8 C-5 9.32 -5 10.64 -5 12 C-5.99 12 -6.98 12 -8 12 C-8.0825 12.78375 -8.165 13.5675 -8.25 14.375 C-9 17 -9 17 -11.0625 18.3125 C-12.0215625 18.6528125 -12.0215625 18.6528125 -13 19 C-12.938125 19.721875 -12.87625 20.44375 -12.8125 21.1875 C-13.09722944 25.45844161 -15.0281492 28.0281492 -18 31 C-18.93045933 28.44855176 -19.08564091 27.25993522 -18.22265625 24.640625 C-17.83980469 23.85171875 -17.45695312 23.0628125 -17.0625 22.25 C-16.68222656 21.45078125 -16.30195313 20.6515625 -15.91015625 19.828125 C-15.60980469 19.22484375 -15.30945313 18.6215625 -15 18 C-14.34 18 -13.68 18 -13 18 C-12.79375 17.34 -12.5875 16.68 -12.375 16 C-10.50875748 11.92819814 -8.02438473 8.31203002 -5 5 C-4.34 5 -3.68 5 -3 5 C-2.690625 4.360625 -2.38125 3.72125 -2.0625 3.0625 C-1 1 -1 1 0 0 Z " fill="#CAB17F" transform="translate(37,45)"/>
<path d="M0 0 C1.32 0.33 2.64 0.66 4 1 C4 2.65 4 4.3 4 6 C-0.19158781 7.29810403 -4.10843427 6.89733694 -8.44140625 6.64453125 C-11.15948506 6.74482641 -11.15948506 6.74482641 -12.83984375 9.01171875 C-13.22269531 9.66785156 -13.60554687 10.32398438 -14 11 C-13.01 11.33 -12.02 11.66 -11 12 C-14.3 12 -17.6 12 -21 12 C-21 9 -21 9 -19.77734375 7.578125 C-12.94844185 2.64855675 -5.88797925 3.96264856 2 5 C1.34 3.35 0.68 1.7 0 0 Z " fill="#FBF5E2" transform="translate(216,128)"/>
<path d="M0 0 C0.33 0 0.66 0 1 0 C1 8.25 1 16.5 1 25 C-0.32 25 -1.64 25 -3 25 C-3 17.74 -3 10.48 -3 3 C-2.34 3 -1.68 3 -1 3 C-1 4.32 -1 5.64 -1 7 C-0.67 4.69 -0.34 2.38 0 0 Z " fill="#282828" transform="translate(135,90)"/>
<path d="M0 0 C2.64 0 5.28 0 8 0 C7.67 3.3 7.34 6.6 7 10 C6.34 8.68 5.68 7.36 5 6 C5.33 5.34 5.66 4.68 6 4 C5.34 4 4.68 4 4 4 C4 11.26 4 18.52 4 26 C3.67 26 3.34 26 3 26 C2.67 20.39 2.34 14.78 2 9 C0.68 8.34 -0.64 7.68 -2 7 C-1.34 4.69 -0.68 2.38 0 0 Z " fill="#5A5A5A" transform="translate(128,89)"/>
<path d="M0 0 C0.66 0 1.32 0 2 0 C2.64834654 1.269553 3.29357815 2.54069706 3.9375 3.8125 C4.29714844 4.52019531 4.65679687 5.22789063 5.02734375 5.95703125 C6 8 6 8 7 11 C3.04 11 -0.92 11 -5 11 C-4.02638202 6.13191012 -2.95842675 3.8549197 0 0 Z " fill="#DCA771" transform="translate(167,122)"/>
<path d="M0 0 C0.66 0 1.32 0 2 0 C3.54296875 2.1171875 3.54296875 2.1171875 5.1875 4.875 C5.73792969 5.77992187 6.28835937 6.68484375 6.85546875 7.6171875 C7.23316406 8.40351562 7.61085937 9.18984375 8 10 C7.67 10.66 7.34 11.32 7 12 C1.06 11.01 1.06 11.01 -5 10 C-3.35 6.7 -1.7 3.4 0 0 Z " fill="#E0A162" transform="translate(189,85)"/>
<path d="M0 0 C-0.33 1.32 -0.66 2.64 -1 4 C6.17359666 5.56542469 13.19317689 6.32317661 20.515625 6.57006836 C24.14488116 6.72799827 26.89956121 7.03348128 30 9 C16.32346209 9.45087488 3.93898839 7.42762726 -9 3 C-5.79678245 0.39225238 -4.1747899 -0.34789916 0 0 Z " fill="#F8F0DE" transform="translate(86,186)"/>
<path d="M0 0 C0.99 0.33 1.98 0.66 3 1 C2.9285376 1.62366455 2.8570752 2.2473291 2.78344727 2.88989258 C1.95824168 10.83709082 1.88369208 18.70323183 1.9375 26.6875 C1.94201172 27.97333984 1.94652344 29.25917969 1.95117188 30.58398438 C1.96283999 33.72270653 1.97920985 36.86132728 2 40 C1.34 40 0.68 40 0 40 C-0.84925523 34.97023584 -1.08007798 30.20008925 -0.87890625 25.09765625 C-0.85529526 24.3750914 -0.83168427 23.65252655 -0.80735779 22.9080658 C-0.73148009 20.62597173 -0.64713556 18.34428432 -0.5625 16.0625 C-0.50920304 14.50457644 -0.45646333 12.9466337 -0.40429688 11.38867188 C-0.27596944 7.59219599 -0.14005377 3.79606064 0 0 Z " fill="#C7B184" transform="translate(23,88)"/>
<path d="M0 0 C3.96 0.33 7.92 0.66 12 1 C12 1.33 12 1.66 12 2 C10.02 2 8.04 2 6 2 C6 8.6 6 15.2 6 22 C0.39 22 -5.22 22 -11 22 C-11 21.67 -11 21.34 -11 21 C-6.05 20.67 -1.1 20.34 4 20 C3.67 14.39 3.34 8.78 3 3 C2.01 2.67 1.02 2.34 0 2 C0 1.34 0 0.68 0 0 Z " fill="#FADCAA" transform="translate(183,94)"/>
<path d="M0 0 C1.64627294 0.71226503 3.25404005 1.51236885 4.8515625 2.328125 C-0.00967848 4.75874549 -3.59594146 5.96457712 -9.1484375 5.328125 C-11.6484375 3.953125 -11.6484375 3.953125 -13.1484375 2.328125 C-13.1484375 1.668125 -13.1484375 1.008125 -13.1484375 0.328125 C-9.20365798 -1.64426476 -4.14728113 -1.29696792 0 0 Z " fill="#FBFAF9" transform="translate(181.1484375,134.671875)"/>
<path d="M0 0 C0 0.66 0 1.32 0 2 C-0.72703125 1.9278125 -1.4540625 1.855625 -2.203125 1.78125 C-16.63884623 0.44872189 -29.73242668 1.60770296 -44 4 C-44.33 3.34 -44.66 2.68 -45 2 C-38.24684571 -0.11766113 -31.64895012 -0.67572101 -24.61181641 -1.11523438 C-22.50425368 -1.24972855 -20.39895596 -1.40544665 -18.29296875 -1.5625 C-16.93498081 -1.65233563 -15.57690936 -1.74091931 -14.21875 -1.828125 C-12.3924707 -1.9504248 -12.3924707 -1.9504248 -10.52929688 -2.07519531 C-6.59333989 -1.99133569 -3.71651179 -1.23209151 0 0 Z " fill="#FBF5E4" transform="translate(120,18)"/>
<path d="M0 0 C7.42890827 4.40231601 15.27479168 9.44102348 21 16 C21 16.66 21 17.32 21 18 C18.32443701 16.86803104 16.53942821 15.60369404 14.3125 13.6875 C10.98817592 10.87926478 7.42809807 8.77960092 3.625 6.6875 C2.98433594 6.32849609 2.34367188 5.96949219 1.68359375 5.59960938 C0.1254837 4.72753286 -1.43682222 3.86295979 -3 3 C-2.01 2.67 -1.02 2.34 0 2 C0 1.34 0 0.68 0 0 Z " fill="#C1B78E" transform="translate(147,30)"/>
<path d="M0 0 C-0.58678331 3.52069985 -1.35649921 5.71299843 -3 9 C-5.97 9 -8.94 9 -12 9 C-11.67 8.34 -11.34 7.68 -11 7 C-10.34 7 -9.68 7 -9 7 C-8.731875 5.865625 -8.46375 4.73125 -8.1875 3.5625 C-7.795625 2.386875 -7.40375 1.21125 -7 0 C-3.86650268 -1.04449911 -3.01031744 -0.93423645 0 0 Z " fill="#FAFDFB" transform="translate(184,105)"/>
<path d="M0 0 C0.99 0 1.98 0 3 0 C2.57156614 3.99871599 2.10851051 7.62021323 1 11.5 C-0.43503694 17.09390197 -0.46003171 22.75360467 -0.625 28.5 C-0.66367188 29.60859375 -0.70234375 30.7171875 -0.7421875 31.859375 C-0.83575243 34.57275797 -0.92149483 37.28614661 -1 40 C-1.33 40 -1.66 40 -2 40 C-2.04980916 35.58920774 -2.08591133 31.17856888 -2.10986328 26.76757812 C-2.11985901 25.27015324 -2.13346014 23.77274756 -2.15087891 22.27539062 C-2.17541288 20.11062857 -2.18654744 17.94612677 -2.1953125 15.78125 C-2.20578613 14.48251953 -2.21625977 13.18378906 -2.22705078 11.84570312 C-1.97739336 7.61709702 -1.14353958 4.06767713 0 0 Z " fill="#FCF8E4" transform="translate(12,80)"/>
<path d="M0 0 C0.66 0.33 1.32 0.66 2 1 C2 2.32 2 3.64 2 5 C-0.97 5 -3.94 5 -7 5 C-7.33 5.99 -7.66 6.98 -8 8 C-8.99 8 -9.98 8 -11 8 C-11.75 6.25 -11.75 6.25 -12 4 C-8.8327612 -0.95741725 -5.36022683 -0.43227636 0 0 Z " fill="#353535" transform="translate(69,89)"/>
<path d="M0 0 C1.32 0 2.64 0 4 0 C5.98 4.95 7.96 9.9 10 15 C8.68 15.33 7.36 15.66 6 16 C5.67 14.68 5.34 13.36 5 12 C3.02 12 1.04 12 -1 12 C-1.33 11.34 -1.66 10.68 -2 10 C-0.02 10 1.96 10 4 10 C3.67 7.69 3.34 5.38 3 3 C2.01 2.67 1.02 2.34 0 2 C0 1.34 0 0.68 0 0 Z " fill="#2B2B2B" transform="translate(71,124)"/>
<path d="M0 0 C2.64 0 5.28 0 8 0 C7.34 0.66 6.68 1.32 6 2 C5.01 2 4.02 2 3 2 C3 3.65 3 5.3 3 7 C3.66 7 4.32 7 5 7 C5 7.66 5 8.32 5 9 C4.34 9 3.68 9 3 9 C3 11.31 3 13.62 3 16 C2.01 16 1.02 16 0 16 C0 10.72 0 5.44 0 0 Z " fill="#222222" transform="translate(135,124)"/>
<path d="M0 0 C2.31 0 4.62 0 7 0 C5.02 0.99 5.02 0.99 3 2 C3 3.65 3 5.3 3 7 C3.99 7 4.98 7 6 7 C6 7.66 6 8.32 6 9 C5.01 9 4.02 9 3 9 C3 11.31 3 13.62 3 16 C2.01 16 1.02 16 0 16 C0 10.72 0 5.44 0 0 Z " fill="#252525" transform="translate(48,124)"/>
<path d="M0 0 C0.99 0.33 1.98 0.66 3 1 C2.01 1.495 2.01 1.495 1 2 C0.67 2.66 0.34 3.32 0 4 C-2.08439082 7.12658623 -2.8463034 7.4231517 -6 9 C-6.99 10.485 -6.99 10.485 -8 12 C-10.62356462 12.98515378 -13.24524123 13.42238929 -16 14 C-15.34 13.01 -14.68 12.02 -14 11 C-13.34 11 -12.68 11 -12 11 C-11.67 10.01 -11.34 9.02 -11 8 C-8.6015625 5.921875 -8.6015625 5.921875 -5.625 3.75 C-4.64789063 3.02296875 -3.67078125 2.2959375 -2.6640625 1.546875 C-1.78492188 1.03640625 -0.90578125 0.5259375 0 0 Z " fill="#CDB285" transform="translate(54,31)"/>
<path d="M0 0 C0.66 0.33 1.32 0.66 2 1 C4.54615009 1.23172827 7.07396225 1.41894529 9.625 1.5625 C10.33140625 1.60568359 11.0378125 1.64886719 11.765625 1.69335938 C13.51018537 1.79944751 15.25506697 1.90022889 17 2 C17 3.65 17 5.3 17 7 C16.37351563 6.84402344 15.74703125 6.68804687 15.1015625 6.52734375 C14.28429687 6.33269531 13.46703125 6.13804687 12.625 5.9375 C11.81289062 5.74027344 11.00078125 5.54304687 10.1640625 5.33984375 C7.95838716 4.77890681 7.95838716 4.77890681 6 6 C3.6505947 5.39239518 1.31470912 4.72870472 -1 4 C-0.67 2.68 -0.34 1.36 0 0 Z " fill="#797B80" transform="translate(193,138)"/>
<path d="M0 0 C1.65 0 3.3 0 5 0 C4.67 5.61 4.34 11.22 4 17 C3.01 17 2.02 17 1 17 C0.67 11.39 0.34 5.78 0 0 Z " fill="#393939" transform="translate(77,89)"/>
<path d="M0 0 C1.32 0 2.64 0 4 0 C4 4.62 4 9.24 4 14 C2.68 13.67 1.36 13.34 0 13 C0 8.71 0 4.42 0 0 Z " fill="#484848" transform="translate(114,124)"/>
<path d="M0 0 C4.03630268 1.52724966 5.78985046 4.03756731 8.25 7.5 C8.95640625 8.4796875 9.6628125 9.459375 10.390625 10.46875 C12 13 12 13 12 15 C12.66 15 13.32 15 14 15 C15.5625 17.8125 15.5625 17.8125 17 21 C16.67 21.99 16.34 22.98 16 24 C14.68 21.69 13.36 19.38 12 17 C11.34 17 10.68 17 10 17 C10 16.34 10 15.68 10 15 C9.34 15 8.68 15 8 15 C7.90847656 14.26136719 7.81695312 13.52273437 7.72265625 12.76171875 C6.88384645 9.55610507 5.71040533 8.18642334 3.4375 5.8125 C0 2.19517103 0 2.19517103 0 0 Z " fill="#E1E3D9" transform="translate(168,48)"/>
<path d="M0 0 C4 1 4 1 5.3125 2.875 C6 5 6 5 5 8 C3.68 8 2.36 8 1 8 C1 9.98 1 11.96 1 14 C0.67 14 0.34 14 0 14 C0 12.02 0 10.04 0 8 C-0.66 8 -1.32 8 -2 8 C-1.34 5.36 -0.68 2.72 0 0 Z " fill="#858585" transform="translate(100,126)"/>
<path d="M0 0 C3.96 0 7.92 0 12 0 C13.125 5.625 13.125 5.625 11 9 C10.67 7.68 10.34 6.36 10 5 C6.7 4.34 3.4 3.68 0 3 C0 2.01 0 1.02 0 0 Z " fill="#2C2C2C" transform="translate(88,90)"/>
<path d="M0 0 C0.99 0 1.98 0 3 0 C3 5.28 3 10.56 3 16 C2.01 16 1.02 16 0 16 C0 10.72 0 5.44 0 0 Z " fill="#1E1E1E" transform="translate(87,124)"/>
<path d="M0 0 C6.30398123 0.22514219 11.58031314 1.73711865 17.4375 3.9375 C18.50291016 4.33509521 18.50291016 4.33509521 19.58984375 4.74072266 C22.53327864 5.88059612 24.7441694 6.7441694 27 9 C23.90784241 8.51685038 21.14631862 7.70944217 18.25 6.5625 C13.025824 4.54023832 7.62551602 3 2 3 C2 2.34 2 1.68 2 1 C1.34 0.67 0.68 0.34 0 0 Z " fill="#FBF6E1" transform="translate(121,26)"/>
<path d="M0 0 C2.8125 -0.25 2.8125 -0.25 6 0 C9 3.1 9 3.1 9 5 C10.98 5.66 12.96 6.32 15 7 C15 7.66 15 8.32 15 9 C17.97 9.495 17.97 9.495 21 10 C21 10.66 21 11.32 21 12 C16.85701333 11.40165275 13.81805623 9.99335715 10.1875 7.9375 C9.21167969 7.38964844 8.23585938 6.84179688 7.23046875 6.27734375 C6.12638672 5.64505859 6.12638672 5.64505859 5 5 C5 4.34 5 3.68 5 3 C2.525 2.01 2.525 2.01 0 1 C0 0.67 0 0.34 0 0 Z " fill="#F8F0DA" transform="translate(56,176)"/>
<path d="M0 0 C1.98 0.66 3.96 1.32 6 2 C5.01 3.485 5.01 3.485 4 5 C2.68 5 1.36 5 0 5 C-0.33 4.67 -0.66 4.34 -1 4 C-2.34386088 4.28797019 -3.6757713 4.63215869 -5 5 C-6.66519519 5.34060811 -8.33157466 5.67558396 -10 6 C-10.33 4.68 -10.66 3.36 -11 2 C-7.37 2 -3.74 2 0 2 C0 1.34 0 0.68 0 0 Z " fill="#727373" transform="translate(180,138)"/>
<path d="M0 0 C3.63 0 7.26 0 11 0 C11 1.65 11 3.3 11 5 C10.34 5 9.68 5 9 5 C9 5.66 9 6.32 9 7 C8.01 7 7.02 7 6 7 C5.67 5.35 5.34 3.7 5 2 C3.35 2 1.7 2 0 2 C0 1.34 0 0.68 0 0 Z " fill="#CECECB" transform="translate(182,138)"/>
<path d="M0 0 C1.43861294 0.08746284 2.87597508 0.19565348 4.3125 0.3125 C5.11300781 0.37050781 5.91351563 0.42851563 6.73828125 0.48828125 C9.36272334 1.08206694 10.30820672 1.95780294 12 4 C9.47524538 5.26237731 7.68799534 5.09856404 4.875 5.0625 C3.96492188 5.05347656 3.05484375 5.04445313 2.1171875 5.03515625 C1.41851562 5.02355469 0.71984375 5.01195313 0 5 C0 3.35 0 1.7 0 0 Z " fill="#2D2D2D" transform="translate(57,110)"/>
<path d="M0 0 C0.99 0.33 1.98 0.66 3 1 C2.57847656 1.55429687 2.15695313 2.10859375 1.72265625 2.6796875 C1.17480469 3.40414062 0.62695312 4.12859375 0.0625 4.875 C-0.48277344 5.59429687 -1.02804688 6.31359375 -1.58984375 7.0546875 C-3.03964624 8.94357079 -3.03964624 8.94357079 -4 11 C-4.66 11 -5.32 11 -6 11 C-6.33 12.98 -6.66 14.96 -7 17 C-8.60461448 12.98846379 -7.45438973 9.92685226 -6 6 C-5.01 5.34 -4.02 4.68 -3 4 C-2.67 3.01 -2.34 2.02 -2 1 C-1.34 0.67 -0.68 0.34 0 0 Z " fill="#FBF6E2" transform="translate(28,52)"/>
<path d="M0 0 C2.3125 0.1875 2.3125 0.1875 5 1 C6.875 3.375 6.875 3.375 8 6 C7.67 6.99 7.34 7.98 7 9 C6.01 9 5.02 9 4 9 C4 10.98 4 12.96 4 15 C3.67 15 3.34 15 3 15 C2.92652344 14.12988281 2.92652344 14.12988281 2.8515625 13.2421875 C2.40350595 8.56076908 1.701979 4.42514541 0 0 Z " fill="#FDF5E1" transform="translate(208,106)"/>
<path d="M0 0 C0.75 1.75 0.75 1.75 1 4 C-0.8125 6.25 -0.8125 6.25 -3 8 C-3.66 8 -4.32 8 -5 8 C-5 9.32 -5 10.64 -5 12 C-5.99 12 -6.98 12 -8 12 C-8.33 13.32 -8.66 14.64 -9 16 C-9.64453125 14.234375 -9.64453125 14.234375 -10 12 C-9.07421875 10.078125 -9.07421875 10.078125 -7.6875 8.25 C-7.23761719 7.63640625 -6.78773437 7.0228125 -6.32421875 6.390625 C-5.88722656 5.93171875 -5.45023438 5.4728125 -5 5 C-4.34 5 -3.68 5 -3 5 C-2.690625 4.360625 -2.38125 3.72125 -2.0625 3.0625 C-1 1 -1 1 0 0 Z " fill="#C6B17D" transform="translate(37,45)"/>
<path d="M0 0 C0.66 0.33 1.32 0.66 2 1 C2 1.99 2 2.98 2 4 C-1 6 -1 6 -4 6 C-4 6.66 -4 7.32 -4 8 C-5.8125 9.0625 -5.8125 9.0625 -8 10 C-8.99 9.67 -9.98 9.34 -11 9 C-9.625 7.5 -9.625 7.5 -8 6 C-7.34 6 -6.68 6 -6 6 C-6 5.34 -6 4.68 -6 4 C-4.03852126 2.61061923 -2.03833424 1.2739589 0 0 Z " fill="#FAF3E3" transform="translate(62,38)"/>
<path d="M0 0 C3.51716303 3.51716303 3.54676163 5.19567333 4 10 C1.69 9.67 -0.62 9.34 -3 9 C-2.01 6.03 -1.02 3.06 0 0 Z " fill="#DB9D5F" transform="translate(211,121)"/>
<path d="M0 0 C1.6875 0.125 1.6875 0.125 4 1 C5.22725218 2.48562106 6.45170856 3.97441046 7.62890625 5.5 C9.70731757 7.77381751 12.19551469 8.82602941 15 10 C14.34 10.66 13.68 11.32 13 12 C7.14044697 9.71334516 3.72073263 5.90960578 0 1 C0 0.67 0 0.34 0 0 Z " fill="#D2A072" transform="translate(171,125)"/>
<path d="M0 0 C0.33 0 0.66 0 1 0 C1.45207023 3.08914655 1.45542577 5.23175654 -0.16015625 7.95703125 C-4.06242758 12.85732594 -4.06242758 12.85732594 -7.875 13.4375 C-8.57625 13.293125 -9.2775 13.14875 -10 13 C-10 11.35 -10 9.7 -10 8 C-9.01 8.495 -9.01 8.495 -8 9 C-8 9.99 -8 10.98 -8 12 C-7.34 11.67 -6.68 11.34 -6 11 C-6 9.35 -6 7.7 -6 6 C-4.35 6.33 -2.7 6.66 -1 7 C-0.67 4.69 -0.34 2.38 0 0 Z " fill="#FCF6E2" transform="translate(205,120)"/>
<path d="M0 0 C0.33 0 0.66 0 1 0 C1.3540919 6.51791392 1.03901852 11.17521449 -2 17 C-2.66 17 -3.32 17 -4 17 C-3.71561048 15.10306139 -3.42216208 13.20747973 -3.125 11.3125 C-2.96257813 10.25675781 -2.80015625 9.20101562 -2.6328125 8.11328125 C-2.04106931 5.20205086 -1.1968194 2.71044393 0 0 Z " fill="#FBF5E1" transform="translate(29,79)"/>
<path d="M0 0 C0.66 0.66 1.32 1.32 2 2 C1.21496094 2.32613281 0.42992188 2.65226562 -0.37890625 2.98828125 C-5.93150673 5.29789053 -11.47894701 7.61590894 -17 10 C-17 9.01 -17 8.02 -17 7 C-16.43410156 6.80664062 -15.86820313 6.61328125 -15.28515625 6.4140625 C-14.55167969 6.15367188 -13.81820312 5.89328125 -13.0625 5.625 C-11.96615234 5.24214844 -11.96615234 5.24214844 -10.84765625 4.8515625 C-8.81317884 4.14728587 -8.81317884 4.14728587 -8 2 C-6.22265625 1.296875 -6.22265625 1.296875 -4.0625 0.75 C-2.99708984 0.46382812 -2.99708984 0.46382812 -1.91015625 0.171875 C-1.27980469 0.11515625 -0.64945313 0.0584375 0 0 Z " fill="#FCF5E2" transform="translate(72,21)"/>
<path d="M0 0 C-0.25390625 1.88671875 -0.25390625 1.88671875 -1 4 C-2.77734375 5.08203125 -2.77734375 5.08203125 -4.9375 5.8125 C-5.64777344 6.06644531 -6.35804687 6.32039063 -7.08984375 6.58203125 C-9 7 -9 7 -11 6 C-10.34 4.68 -9.68 3.36 -9 2 C-9.66 1.67 -10.32 1.34 -11 1 C-7.32589215 -0.17571451 -3.83070817 -0.07366746 0 0 Z " fill="#CFAB69" transform="translate(77,25)"/>
<path d="M0 0 C0 5.06011717 -3.76055088 8.32278748 -7 12 C-9.25524902 14.1420512 -11.56266816 16.06008282 -14 18 C-14 15 -14 15 -12.50390625 13.5 C-11.86324219 13.005 -11.22257813 12.51 -10.5625 12 C-7.49568071 9.62300315 -7.49568071 9.62300315 -6 6 C-4.37446717 4.29319053 -2.70884005 2.62339805 -1 1 C-0.67 0.67 -0.34 0.34 0 0 Z " fill="#CACBBF" transform="translate(177,159)"/>
<path d="M0 0 C1.75 0.0625 1.75 0.0625 4 1 C5.06114341 2.73641648 6.1171486 4.4791739 7.0625 6.28125 C8.88285996 9.6185766 10.41126652 10.80375551 14 12 C13.67 12.66 13.34 13.32 13 14 C10 14 10 14 8 13 C6.97862543 11.34634594 5.98387706 9.67623498 5 8 C4.11418279 6.74288217 3.21793873 5.49305996 2.3125 4.25 C0 1 0 1 0 0 Z " fill="#CBB588" transform="translate(26,159)"/>
<path d="M0 0 C2.49361571 1.20381448 4.68143083 2.45428722 7 4 C6.79375 4.515625 6.5875 5.03125 6.375 5.5625 C5.84112974 9.03265671 6.92323239 11.70635791 8 15 C4.97059382 13.48529691 4.35039454 11.0596179 2.875 8.0625 C2.33617187 6.98097656 1.79734375 5.89945313 1.2421875 4.78515625 C0 2 0 2 0 0 Z " fill="#C5B181" transform="translate(18,144)"/>
<path d="M0 0 C1.65 0 3.3 0 5 0 C5.625 2.375 5.625 2.375 6 5 C5.34 5.66 4.68 6.32 4 7 C2.68 7 1.36 7 0 7 C0 4.69 0 2.38 0 0 Z " fill="#F3F3F3" transform="translate(93,94)"/>
<path d="M0 0 C1.32 0.33 2.64 0.66 4 1 C4 1.66 4 2.32 4 3 C2.23141309 3.67260351 0.46003984 4.33788395 -1.3125 5 C-2.29863281 5.37125 -3.28476563 5.7425 -4.30078125 6.125 C-7 7 -7 7 -10 7 C-10 6.34 -10 5.68 -10 5 C-6.7 3.68 -3.4 2.36 0 1 C0 0.67 0 0.34 0 0 Z " fill="#FCFAE8" transform="translate(138,185)"/>
<path d="M0 0 C1.98 0.99 1.98 0.99 4 2 C4 4.97 4 7.94 4 11 C2.68 11 1.36 11 0 11 C0 7.37 0 3.74 0 0 Z " fill="#2F2F2F" transform="translate(88,104)"/>
<path d="M0 0 C2.31 0.66 4.62 1.32 7 2 C7.061875 2.61875 7.12375 3.2375 7.1875 3.875 C7.828919 6.27761141 7.828919 6.27761141 10.5625 7.25 C11.366875 7.4975 12.17125 7.745 13 8 C12.34 8.66 11.68 9.32 11 10 C9.453125 8.8553125 9.453125 8.8553125 7.875 7.6875 C4.72582739 5.42984469 1.52287088 3.63254992 -2 2 C-1.34 1.34 -0.68 0.68 0 0 Z " fill="#FBF3DF" transform="translate(144,26)"/>
<path d="M0 0 C-2.58067563 0.69918305 -5.16372847 1.38461049 -7.75 2.0625 C-8.47960937 2.26166016 -9.20921875 2.46082031 -9.9609375 2.66601562 C-13.71031044 3.63744407 -16.30274238 4.15449387 -20 3 C-18.27255984 2.34956281 -16.5429631 1.70485156 -14.8125 1.0625 C-13.84957031 0.70285156 -12.88664062 0.34320312 -11.89453125 -0.02734375 C-4.1673913 -2.62391304 -4.1673913 -2.62391304 0 0 Z " fill="#CAB386" transform="translate(86,22)"/>
<path d="M0 0 C0.33 0.66 0.66 1.32 1 2 C1.99 1.67 2.98 1.34 4 1 C5 7.75 5 7.75 5 10 C3.68 10 2.36 10 1 10 C-1.125 3.375 -1.125 3.375 0 0 Z " fill="#3D3D3D" transform="translate(70,124)"/>
<path d="M0 0 C0.66 0 1.32 0 2 0 C2 3.63 2 7.26 2 11 C-2.29 11 -6.58 11 -11 11 C-7.23312136 9.11656068 -5.97041037 8.77942165 -2 9 C-0.14223235 5.86501708 0.20140476 3.62528568 0 0 Z " fill="#FEF9E7" transform="translate(183,104)"/>
<path d="M0 0 C1.98 0.66 3.96 1.32 6 2 C6.33 3.98 6.66 5.96 7 8 C4.625 8.1875 4.625 8.1875 2 8 C-0.1519437 4.77208445 -0.20086443 3.71599191 0 0 Z " fill="#454545" transform="translate(56,94)"/>
<path d="M0 0 C3.82868919 1.45226142 5.2538953 3.33318013 7 7 C7 8.32 7 9.64 7 11 C8.98 11 10.96 11 13 11 C12.67 12.32 12.34 13.64 12 15 C5.33696729 11.79187314 5.33696729 11.79187314 3.75 8.0625 C3.5025 7.051875 3.255 6.04125 3 5 C2.0436126 3.30792999 1.05589069 1.63183107 0 0 Z " fill="#FDF1DB" transform="translate(191,86)"/>
<path d="M0 0 C2.64 0.33 5.28 0.66 8 1 C8.33 2.32 8.66 3.64 9 5 C6.03 5 3.06 5 0 5 C0 3.35 0 1.7 0 0 Z " fill="#2E2E2E" transform="translate(37,110)"/>
<path d="M0 0 C-0.33 0.99 -0.66 1.98 -1 3 C-3.87109375 4.01953125 -3.87109375 4.01953125 -7.4375 4.8125 C-8.61183594 5.08707031 -9.78617188 5.36164063 -10.99609375 5.64453125 C-12.48302734 5.82048828 -12.48302734 5.82048828 -14 6 C-14.66 5.34 -15.32 4.68 -16 4 C-13.71144298 3.13656269 -11.4198072 2.2840189 -9.125 1.4375 C-8.47402344 1.19064453 -7.82304687 0.94378906 -7.15234375 0.68945312 C-2.2265625 -1.11328125 -2.2265625 -1.11328125 0 0 Z " fill="#F9F1DB" transform="translate(141,193)"/>
<path d="M0 0 C0.99 0.33 1.98 0.66 3 1 C3.94921875 3.72265625 3.94921875 3.72265625 4.6875 7.0625 C4.93886719 8.16722656 5.19023438 9.27195313 5.44921875 10.41015625 C5.63097656 11.26480469 5.81273437 12.11945313 6 13 C6.66 13 7.32 13 8 13 C7.67 14.32 7.34 15.64 7 17 C4.07321751 11.44920563 1.8331267 5.99932374 0 0 Z " fill="#F7F0DA" transform="translate(28,136)"/>
<path d="M0 0 C4.95 0 9.9 0 15 0 C15 2.31 15 4.62 15 7 C14.34 6.34 13.68 5.68 13 5 C13 4.01 13 3.02 13 2 C9.37 2 5.74 2 2 2 C1.67 2.66 1.34 3.32 1 4 C0.67 2.68 0.34 1.36 0 0 Z " fill="#FFF6DD" transform="translate(173,122)"/>
<path d="M0 0 C2.64 0 5.28 0 8 0 C8.33 0.99 8.66 1.98 9 3 C8.67 3.66 8.34 4.32 8 5 C6.68 5 5.36 5 4 5 C2 3 2 3 0 0 Z " fill="#484848" transform="translate(108,89)"/>
<path d="M0 0 C1.65 0 3.3 0 5 0 C1.97079192 3.26222409 -1.30763898 5.53842598 -5 8 C-5.33 8.66 -5.66 9.32 -6 10 C-6.66 9.67 -7.32 9.34 -8 9 C-6.8125 6.5625 -6.8125 6.5625 -5 4 C-2.3125 3.1875 -2.3125 3.1875 0 3 C0 2.01 0 1.02 0 0 Z " fill="#FAF3DE" transform="translate(48,32)"/>
<path d="M0 0 C0.33 0 0.66 0 1 0 C3.29612756 9.41002278 3.29612756 9.41002278 3 14 C2.34 14 1.68 14 1 14 C-1.20808081 8.80451575 -0.93402724 5.41735797 0 0 Z " fill="#FDF8E6" transform="translate(11,122)"/>
<path d="M0 0 C4.875 4.5 4.875 4.5 6 9 C2.7 9 -0.6 9 -4 9 C-4 8.67 -4 8.34 -4 8 C-2.35 8 -0.7 8 1 8 C0.67 5.36 0.34 2.72 0 0 Z " fill="#FCEFDB" transform="translate(202,103)"/>
<path d="M0 0 C1.60597325 0.45196245 3.20972508 0.91182327 4.8125 1.375 C6.15248047 1.75785156 6.15248047 1.75785156 7.51953125 2.1484375 C10 3 10 3 13 5 C8.17639811 5.19294408 4.50353262 4.75747614 0 3 C0 2.01 0 1.02 0 0 Z " fill="#FCFAE9" transform="translate(64,193)"/>
<path d="M0 0 C0.33 0.66 0.66 1.32 1 2 C0.0625 4.625 0.0625 4.625 -1 7 C-1.66 7 -2.32 7 -3 7 C-3.66 8.32 -4.32 9.64 -5 11 C-5.99 11 -6.98 11 -8 11 C-7.21718695 9.66144944 -6.42348123 8.32926356 -5.625 7 C-5.18414062 6.2575 -4.74328125 5.515 -4.2890625 4.75 C-3.86367188 4.1725 -3.43828125 3.595 -3 3 C-2.34 3 -1.68 3 -1 3 C-0.67 2.01 -0.34 1.02 0 0 Z " fill="#F8EEDC" transform="translate(44,54)"/>
<path d="M0 0 C2.97 0 5.94 0 9 0 C9 1.65 9 3.3 9 5 C6.03 4.01 3.06 3.02 0 2 C0 1.34 0 0.68 0 0 Z " fill="#837F78" transform="translate(201,140)"/>
<path d="M0 0 C3.69230769 0.69230769 3.69230769 0.69230769 5 2 C5.25 4.4375 5.25 4.4375 5 7 C4.01 7.66 3.02 8.32 2 9 C1.814375 7.8553125 1.814375 7.8553125 1.625 6.6875 C1.11897208 3.79732864 1.11897208 3.79732864 -1 1 C-0.67 0.67 -0.34 0.34 0 0 Z " fill="#313131" transform="translate(103,124)"/>
<path d="M0 0 C1.98 0.495 1.98 0.495 4 1 C3.25 6.75 3.25 6.75 1 9 C-0.61949011 6.42786866 -1.04408751 5.32330841 -0.625 2.25 C-0.41875 1.5075 -0.2125 0.765 0 0 Z " fill="#333132" transform="translate(126,96)"/>
<path d="M0 0 C2.475 0.99 2.475 0.99 5 2 C4.67 3.65 4.34 5.3 4 7 C1.36 5.68 -1.28 4.36 -4 3 C-3.34 2.67 -2.68 2.34 -2 2 C-1.34 2.33 -0.68 2.66 0 3 C0 2.01 0 1.02 0 0 Z " fill="#2C2C2C" transform="translate(63,99)"/>
<path d="M0 0 C0.66 0.66 1.32 1.32 2 2 C1.34 2 0.68 2 0 2 C-0.66 3.65 -1.32 5.3 -2 7 C-3.32 7 -4.64 7 -6 7 C-6 7.66 -6 8.32 -6 9 C-6.99 8.67 -7.98 8.34 -9 8 C-6.03 5.36 -3.06 2.72 0 0 Z " fill="#F8F8E5" transform="translate(167,173)"/>
<path d="M0 0 C0.99 0.33 1.98 0.66 3 1 C4.1875 4.0625 4.1875 4.0625 5 7 C3.0625 7.5625 3.0625 7.5625 1 8 C0 7 0 7 -0.0625 3.4375 C-0.041875 2.303125 -0.02125 1.16875 0 0 Z " fill="#EDEDED" transform="translate(51,133)"/>
<path d="M0 0 C2.31 0.33 4.62 0.66 7 1 C7 2.32 7 3.64 7 5 C4.69 4.67 2.38 4.34 0 4 C0 2.68 0 1.36 0 0 Z " fill="#323232" transform="translate(44,89)"/>
<path d="M0 0 C0.66 0 1.32 0 2 0 C6 5.41176471 6 5.41176471 6 8 C5.01 8 4.02 8 3 8 C3 6.68 3 5.36 3 4 C2.01 4 1.02 4 0 4 C-0.33 4.99 -0.66 5.98 -1 7 C-1.04254356 5.00045254 -1.04080783 2.99958364 -1 1 C-0.67 0.67 -0.34 0.34 0 0 Z " fill="#DBA573" transform="translate(189,85)"/>
<path d="M0 0 C0 0.66 0 1.32 0 2 C-4.33085971 3.29925791 -8.51474352 4.343621 -13 5 C-13.33 4.34 -13.66 3.68 -14 3 C-12.4188708 2.49307308 -10.83498617 1.99473557 -9.25 1.5 C-7.92742187 1.08234375 -7.92742187 1.08234375 -6.578125 0.65625 C-4 0 -4 0 0 0 Z " fill="#FAF1E0" transform="translate(95,26)"/>
<path d="M0 0 C0.66 0 1.32 0 2 0 C2 0.66 2 1.32 2 2 C2.99 2.33 3.98 2.66 5 3 C5 3.99 5 4.98 5 6 C3.35 6 1.7 6 0 6 C-1.125 2.25 -1.125 2.25 0 0 Z " fill="#F29744" transform="translate(166,126)"/>
<path d="M0 0 C1.87501642 3.56095555 2.95330847 7.1122886 4 11 C3.01 11.33 2.02 11.66 1 12 C-0.26237731 9.47524538 -0.09856404 7.68799534 -0.0625 4.875 C-0.05347656 3.96492187 -0.04445313 3.05484375 -0.03515625 2.1171875 C-0.02355469 1.41851562 -0.01195313 0.71984375 0 0 Z " fill="#C8B083" transform="translate(25,128)"/>
<path d="M0 0 C0.66 0 1.32 0 2 0 C0.89184175 3.21365891 0.01470446 3.9914224 -3 5.75 C-6 7 -6 7 -8 7 C-8 6.01 -8 5.02 -8 4 C-6.865625 3.525625 -5.73125 3.05125 -4.5625 2.5625 C-1.24259834 1.36377917 -1.24259834 1.36377917 0 0 Z " fill="#C9A47A" transform="translate(202,130)"/>
<path d="M0 0 C2.12508244 3.18762365 2.5020163 5.26512223 3 9 C2.34 9 1.68 9 1 9 C0.67 9.99 0.34 10.98 0 12 C-1.28571429 3.42857143 -1.28571429 3.42857143 0 0 Z " fill="#2C2A2B" transform="translate(119,101)"/>
<path d="M0 0 C0.99 0.33 1.98 0.66 3 1 C2.01 2.98 1.02 4.96 0 7 C-0.66 7 -1.32 7 -2 7 C-1.67 7.99 -1.34 8.98 -1 10 C-2.32 10.33 -3.64 10.66 -5 11 C-4.34 9.35 -3.68 7.7 -3 6 C-2.34 6 -1.68 6 -1 6 C-0.67 4.02 -0.34 2.04 0 0 Z " fill="#FDF0D0" transform="translate(185,87)"/>
<path d="M0 0 C3.45195767 1.4258086 5.1014256 3.09746334 7.25 6.125 C8.03117188 7.21167969 8.03117188 7.21167969 8.828125 8.3203125 C9.40820312 9.15175781 9.40820312 9.15175781 10 10 C9.67 10.66 9.34 11.32 9 12 C7.49405319 10.38050958 5.99539332 8.75424026 4.5 7.125 C3.6646875 6.22007813 2.829375 5.31515625 1.96875 4.3828125 C0 2 0 2 0 0 Z " fill="#C3C1B5" transform="translate(168,48)"/>
<path d="M0 0 C2.64752004 2.57784846 4.94432065 4.91648098 7 8 C5.68 8.33 4.36 8.66 3 9 C0 2.25 0 2.25 0 0 Z " fill="#CEB685" transform="translate(39,159)"/>
<path d="M0 0 C-0.66 1.32 -1.32 2.64 -2 4 C-4.64 4 -7.28 4 -10 4 C-10.33 3.34 -10.66 2.68 -11 2 C-9.88625 1.855625 -8.7725 1.71125 -7.625 1.5625 C-4.88109566 1.13672174 -2.67649104 0 0 0 Z " fill="#282828" transform="translate(127,136)"/>
<path d="M0 0 C3.85067311 0.52036123 5.31327701 1.31327701 8 4 C9.32 4 10.64 4 12 4 C12 4.66 12 5.32 12 6 C9.04876854 6.35133708 6.8502099 6.52850886 4.265625 4.921875 C2.77831883 3.6895356 1.38214043 2.34923232 0 1 C0 0.67 0 0.34 0 0 Z " fill="#FCEED7" transform="translate(176,128)"/>
<path d="M0 0 C0.99 0 1.98 0 3 0 C3.33 1.98 3.66 3.96 4 6 C2.35 6 0.7 6 -1 6 C-1.042721 4.33388095 -1.04063832 2.66617115 -1 1 C-0.67 0.67 -0.34 0.34 0 0 Z " fill="#CDB078" transform="translate(18,74)"/>
<path d="M0 0 C0.5775 0.37125 1.155 0.7425 1.75 1.125 C-2.47949995 3.54185712 -5.37335991 4.47333144 -10.25 4.125 C-3.34459459 -1.30067568 -3.34459459 -1.30067568 0 0 Z " fill="#CCB486" transform="translate(66.25,26.875)"/>
<path d="M0 0 C-1.98 0.99 -1.98 0.99 -4 2 C-3.67 2.66 -3.34 3.32 -3 4 C-9.625 3.25 -9.625 3.25 -13 1 C-8.62426048 0.40667939 -4.42471556 -0.13827236 0 0 Z " fill="#C7A875" transform="translate(88,194)"/>
<path d="M0 0 C3.79588866 0.54226981 5.47211993 2.20127563 8 5 C7.01 5.33 6.02 5.66 5 6 C2.3125 4.1875 2.3125 4.1875 0 2 C0 1.34 0 0.68 0 0 Z " fill="#FBF4E6" transform="translate(48,184)"/>
<path d="M0 0 C2.12038635 2.61514317 4.13091744 5.19637616 6 8 C3.625 7.75 3.625 7.75 1 7 C-0.375 5.125 -0.375 5.125 -1 3 C-0.67 2.01 -0.34 1.02 0 0 Z " fill="#FAF3E0" transform="translate(26,160)"/>
<path d="M0 0 C0.99 0 1.98 0 3 0 C3.66 2.31 4.32 4.62 5 7 C3.68 7 2.36 7 1 7 C0.67 4.69 0.34 2.38 0 0 Z " fill="#353535" transform="translate(76,133)"/>
<path d="M0 0 C0.66 0.33 1.32 0.66 2 1 C2 1.99 2 2.98 2 4 C0.35 4.66 -1.3 5.32 -3 6 C-3.66 5.34 -4.32 4.68 -5 4 C-4.34 3.01 -3.68 2.02 -3 1 C-2.01 1.33 -1.02 1.66 0 2 C0 1.34 0 0.68 0 0 Z " fill="#3C3C3C" transform="translate(49,109)"/>
<path d="M0 0 C0.99 0.66 1.98 1.32 3 2 C3.1875 4.625 3.1875 4.625 3 7 C1.35 7.66 -0.3 8.32 -2 9 C-1.67 7.35 -1.34 5.7 -1 4 C-0.34 4 0.32 4 1 4 C0.67 2.68 0.34 1.36 0 0 Z " fill="#474647" transform="translate(121,106)"/>
<path d="M0 0 C2.64 0 5.28 0 8 0 C7.34 1.32 6.68 2.64 6 4 C4.02 4 2.04 4 0 4 C0 2.68 0 1.36 0 0 Z " fill="#282828" transform="translate(91,101)"/>
<path d="M0 0 C0.99 0 1.98 0 3 0 C4.125 3.75 4.125 3.75 3 6 C2.34 6 1.68 6 1 6 C0.67 6.66 0.34 7.32 0 8 C-1.09658936 4.71023192 -0.79953138 3.28696233 0 0 Z " fill="#454545" transform="translate(39,95)"/>
<path d="M0 0 C0.66 0 1.32 0 2 0 C2.25 2.8125 2.25 2.8125 2 6 C0 7.875 0 7.875 -2 9 C-2 6.36 -2 3.72 -2 1 C-1.34 1 -0.68 1 0 1 C0 0.67 0 0.34 0 0 Z " fill="#2E2E2E" transform="translate(90,94)"/>
<path d="M0 0 C2.31 0.33 4.62 0.66 7 1 C7 2.32 7 3.64 7 5 C4.69 4.67 2.38 4.34 0 4 C0.66 3.34 1.32 2.68 2 2 C1.34 1.34 0.68 0.68 0 0 Z " fill="#2A2A2A" transform="translate(64,89)"/>
<path d="M0 0 C2.97 0 5.94 0 9 0 C3.85714286 5.57142857 3.85714286 5.57142857 0 6 C0 5.34 0 4.68 0 4 C0.99 4 1.98 4 3 4 C3 3.01 3 2.02 3 1 C2.01 0.67 1.02 0.34 0 0 Z " fill="#F7F4E8" transform="translate(152,176)"/>
<path d="M0 0 C1.98 0.99 3.96 1.98 6 3 C5.01 3.495 5.01 3.495 4 4 C4 4.66 4 5.32 4 6 C4.99 6 5.98 6 7 6 C7 6.66 7 7.32 7 8 C4.525 7.01 4.525 7.01 2 6 C2 5.01 2 4.02 2 3 C1.34 3 0.68 3 0 3 C0 2.01 0 1.02 0 0 Z " fill="#CDA961" transform="translate(53,178)"/>
<path d="M0 0 C2.375 0.625 2.375 0.625 5 2 C6.3125 5.125 6.3125 5.125 7 8 C4.36 6.02 1.72 4.04 -1 2 C-0.67 1.34 -0.34 0.68 0 0 Z " fill="#FAF4DF" transform="translate(49,168)"/>
<path d="M0 0 C2.50037734 2.17424117 3.43628586 3.73045798 4 7 C2.68 7 1.36 7 0 7 C-0.38133299 5.0085944 -0.71325582 3.00720923 -1 1 C-0.67 0.67 -0.34 0.34 0 0 Z " fill="#2B2B2B" transform="translate(143,133)"/>
<path d="M0 0 C5.53846154 0.61538462 5.53846154 0.61538462 7.875 2.5625 C8.431875 3.2740625 8.431875 3.2740625 9 4 C2.375 4.125 2.375 4.125 -1 3 C-0.67 2.01 -0.34 1.02 0 0 Z " fill="#FDF2DC" transform="translate(193,99)"/>
<path d="M0 0 C1.98 0.66 3.96 1.32 6 2 C3.38326241 3.40182371 0.9628331 4.60495559 -2 5 C-2.66 4.34 -3.32 3.68 -4 3 C-2.68 2.67 -1.36 2.34 0 2 C0 1.34 0 0.68 0 0 Z " fill="#FBF4E3" transform="translate(180,135)"/>
<path d="M0 0 C1.53656962 2.4404341 2.02089707 3.70744102 1.8125 6.625 C1 9 1 9 -2 11 C-1.85892253 9.54119891 -1.71197585 8.08296449 -1.5625 6.625 C-1.48128906 5.81289062 -1.40007812 5.00078125 -1.31640625 4.1640625 C-1 2 -1 2 0 0 Z " fill="#DBAC7D" transform="translate(171,107)"/>
<path d="M0 0 C0.66 1.32 1.32 2.64 2 4 C1.34 4.66 0.68 5.32 0 6 C-0.99 6 -1.98 6 -3 6 C-3 6.99 -3 7.98 -3 9 C-3.66 8.67 -4.32 8.34 -5 8 C-4.67 7.01 -4.34 6.02 -4 5 C-3.34 5 -2.68 5 -2 5 C-1.34 3.35 -0.68 1.7 0 0 Z " fill="#D1BD93" transform="translate(26,58)"/>
<path d="M0 0 C-0.33 1.32 -0.66 2.64 -1 4 C-4.3 4.33 -7.6 4.66 -11 5 C-9.70976282 2.41952564 -8.72910609 2.32977036 -6.0625 1.375 C-5.35222656 1.11460938 -4.64195313 0.85421875 -3.91015625 0.5859375 C-2 0 -2 0 0 0 Z " fill="#F6F2DE" transform="translate(80,30)"/>
<path d="M0 0 C-1 3 -1 3 -3.8125 4.75 C-7.13982105 6.05483179 -7.79584277 6.02866653 -11 5 C-9.54462432 4.16151196 -8.08559627 3.32936066 -6.625 2.5 C-5.81289062 2.0359375 -5.00078125 1.571875 -4.1640625 1.09375 C-2 0 -2 0 0 0 Z " fill="#F8F3DC" transform="translate(152,186)"/>
<path d="M0 0 C1.32 0 2.64 0 4 0 C4.33 0.99 4.66 1.98 5 3 C4.34 3.66 3.68 4.32 3 5 C2.01 5 1.02 5 0 5 C0 3.35 0 1.7 0 0 Z " fill="#CDCDCD" transform="translate(138,126)"/>
<path d="M0 0 C2.31 0 4.62 0 7 0 C6.67 0.99 6.34 1.98 6 3 C4.02 3 2.04 3 0 3 C0 2.01 0 1.02 0 0 Z " fill="#2B2B2B" transform="translate(140,90)"/>
<path d="M0 0 C1.1725131 0.95117134 2.33787015 1.91117009 3.5 2.875 C4.47453125 3.67550781 4.47453125 3.67550781 5.46875 4.4921875 C5.9740625 4.98976563 6.479375 5.48734375 7 6 C7 6.66 7 7.32 7 8 C4.13792848 6.71700242 1.9754912 5.469364 0 3 C0 2.01 0 1.02 0 0 Z " fill="#BFB9A5" transform="translate(161,40)"/>
<path d="M0 0 C3 1 3 1 4.1875 3.0625 C4.455625 3.701875 4.72375 4.34125 5 5 C3.68 5.33 2.36 5.66 1 6 C0.34 4.35 -0.32 2.7 -1 1 C-0.67 0.67 -0.34 0.34 0 0 Z " fill="#FEFBEC" transform="translate(211,107)"/>
<path d="M0 0 C0.33 0 0.66 0 1 0 C1.0825 0.94875 1.165 1.8975 1.25 2.875 C1.65074923 6.10461791 1.65074923 6.10461791 4.0625 7.375 C4.701875 7.58125 5.34125 7.7875 6 8 C6 8.33 6 8.66 6 9 C4.02 9 2.04 9 0 9 C0 6.03 0 3.06 0 0 Z " fill="#FEFBE9" transform="translate(192,103)"/>
<path d="M0 0 C0.598125 0.350625 1.19625 0.70125 1.8125 1.0625 C1.8125 2.0525 1.8125 3.0425 1.8125 4.0625 C-1.45704202 3.49878586 -3.01325883 2.56287734 -5.1875 0.0625 C-2.1875 -0.9375 -2.1875 -0.9375 0 0 Z " fill="#F9F7E1" transform="translate(161.1875,35.9375)"/>
<path d="M0 0 C1.98 0 3.96 0 6 0 C3.31158141 2.25245881 1.35358125 3.88213958 -2 5 C-1 2 -1 2 0 0 Z " fill="#FAF5E3" transform="translate(146,182)"/>
<path d="M0 0 C1.32 0.33 2.64 0.66 4 1 C4 1.99 4 2.98 4 4 C1.03 3.505 1.03 3.505 -2 3 C-1.34 2.01 -0.68 1.02 0 0 Z " fill="#F39A42" transform="translate(211,127)"/>
<path d="M0 0 C2.12508244 3.18762365 2.5020163 5.26512223 3 9 C2.01 9.33 1.02 9.66 0 10 C0 6.7 0 3.4 0 0 Z " fill="#E6E5E5" transform="translate(113,95)"/>
<path d="M0 0 C-2.31 1.65 -4.62 3.3 -7 5 C-6.67 3.35 -6.34 1.7 -6 0 C-3 -1 -3 -1 0 0 Z " fill="#FDEED1" transform="translate(180,99)"/>
<path d="M0 0 C1.98 1.65 3.96 3.3 6 5 C4.125 5.625 4.125 5.625 2 6 C1.34 5.34 0.68 4.68 0 4 C0 2.68 0 1.36 0 0 Z " fill="#FDF7EC" transform="translate(160,42)"/>
<path d="M0 0 C1.32 0.66 2.64 1.32 4 2 C4 2.99 4 3.98 4 5 C2.0625 4.6875 2.0625 4.6875 0 4 C-0.33 3.01 -0.66 2.02 -1 1 C-0.67 0.67 -0.34 0.34 0 0 Z " fill="#FAF5DF" transform="translate(41,178)"/>
<path d="M0 0 C2.5654594 2.5654594 2.54046087 4.47686668 3 8 C2.01 8 1.02 8 0 8 C0 5.36 0 2.72 0 0 Z " fill="#FAF7E5" transform="translate(14,136)"/>
<path d="M0 0 C3.465 1.485 3.465 1.485 7 3 C6.34 3.66 5.68 4.32 5 5 C3.02 4.01 1.04 3.02 -1 2 C-0.67 1.34 -0.34 0.68 0 0 Z " fill="#CDA67B" transform="translate(179,132)"/>
<path d="M0 0 C2.02054804 1.64169528 4.02043058 3.30911778 6 5 C6 5.33 6 5.66 6 6 C4.02 6.33 2.04 6.66 0 7 C0 6.34 0 5.68 0 5 C0.66 5 1.32 5 2 5 C1.34 3.35 0.68 1.7 0 0 Z " fill="#FAE5C0" transform="translate(172,128)"/>
<path d="M0 0 C0.66 0.33 1.32 0.66 2 1 C2.625 3.5625 2.625 3.5625 3 6 C1.68 6 0.36 6 -1 6 C-0.67 4.02 -0.34 2.04 0 0 Z " fill="#D6D6D6" transform="translate(72,128)"/>
<path d="M0 0 C1.32 0.33 2.64 0.66 4 1 C3.67 2.32 3.34 3.64 3 5 C2.01 5 1.02 5 0 5 C0 3.35 0 1.7 0 0 Z " fill="#E4E4E4" transform="translate(51,126)"/>
</svg>
